<?xml version="1.0" standalone="no"?>
<!DOCTYPE svg PUBLIC "-//W3C//DTD SVG 20010904//EN"
 "http://www.w3.org/TR/2001/REC-SVG-20010904/DTD/svg10.dtd">
<svg version="1.0" xmlns="http://www.w3.org/2000/svg"
 width="1000.000000pt" height="1000.000000pt" viewBox="0 0 1000.000000 1000.000000"
 preserveAspectRatio="xMidYMid meet">
<metadata>
Created by potrace 1.11, written by Peter Selinger 2001-2013
</metadata>
<g transform="translate(0.000000,1000.000000) scale(0.100000,-0.100000)"
fill="#000000" stroke="none">
<path d="M5048 9995 c-2 -1 -43 -5 -93 -9 -49 -4 -108 -9 -130 -12 -77 -9
-250 -35 -265 -39 -8 -2 -28 -7 -45 -10 -16 -2 -41 -7 -55 -10 -14 -3 -38 -8
-53 -10 -178 -33 -656 -185 -832 -265 -22 -10 -74 -33 -115 -50 -371 -159
-843 -444 -1215 -735 -84 -65 -354 -294 -401 -339 -243 -235 -363 -360 -514
-536 -12 -14 -31 -36 -43 -50 -55 -63 -183 -227 -269 -345 -496 -679 -846
-1483 -962 -2205 -3 -19 -8 -51 -11 -70 -4 -19 -8 -48 -10 -65 -1 -16 -6 -57
-9 -90 -4 -33 -9 -76 -13 -95 -8 -56 -11 -498 -2 -580 20 -202 28 -270 34
-280 2 -3 6 -30 10 -60 4 -30 9 -58 11 -61 2 -3 6 -21 9 -40 13 -77 55 -222
100 -349 156 -437 433 -829 780 -1105 106 -84 257 -187 325 -221 42 -21 57
-37 101 -112 164 -274 358 -495 612 -697 87 -69 281 -194 327 -211 9 -3 27
-26 40 -51 39 -74 167 -262 233 -343 141 -173 242 -270 422 -409 22 -17 45
-34 50 -39 16 -13 144 -95 210 -134 63 -38 209 -110 285 -141 25 -10 54 -23
65 -27 38 -17 255 -89 255 -85 0 3 12 0 26 -5 32 -13 225 -56 284 -65 25 -3
72 -10 105 -16 219 -35 712 -32 950 6 17 2 48 7 70 10 22 3 55 8 72 10 18 3
53 9 78 15 25 6 62 13 83 16 166 26 582 155 836 258 242 99 558 256 736 366 8
5 47 28 85 51 289 175 713 498 955 728 285 272 512 518 678 736 26 33 49 62
52 65 14 11 191 263 262 372 257 391 477 842 614 1253 67 204 131 441 149 555
4 19 10 53 15 75 66 297 84 756 44 1140 -9 85 -72 385 -99 475 -52 168 -100
287 -176 440 -217 434 -540 780 -956 1023 -76 45 -86 54 -128 125 -87 146
-107 176 -181 271 -189 241 -437 457 -703 611 -45 26 -79 54 -90 72 -65 121
-226 347 -316 444 -111 121 -162 169 -280 265 -184 150 -353 250 -625 372 -48
21 -300 107 -300 102 0 -2 -17 2 -38 9 -69 25 -296 68 -427 82 -27 2 -66 7
-85 11 -35 6 -515 14 -522 8z m536 -460 c502 -58 958 -253 1261 -540 49 -46
55 -55 35 -51 -164 33 -386 53 -610 53 -660 2 -1321 -164 -2005 -502 -596
-294 -1102 -661 -1595 -1155 -179 -179 -238 -242 -360 -385 -23 -27 -52 -61
-64 -75 -11 -14 -37 -45 -56 -70 -19 -25 -37 -47 -40 -50 -18 -17 -190 -256
-266 -370 -627 -936 -938 -1976 -871 -2910 7 -101 26 -260 32 -269 1 -3 6 -31
10 -61 4 -30 9 -59 13 -65 10 -19 -81 81 -133 145 -277 344 -437 771 -481
1285 -5 55 -4 412 0 455 3 19 7 67 11 105 3 39 8 81 10 95 86 543 205 918 439
1390 209 420 465 798 810 1195 122 140 476 488 596 585 30 25 57 48 60 51 16
19 263 208 360 276 531 373 1093 637 1643 772 170 42 347 76 444 86 32 3 69 8
83 11 14 2 88 7 165 10 77 4 141 7 142 8 8 6 263 -7 367 -19z m991 -1001 c249
-31 436 -75 628 -148 71 -26 268 -116 277 -126 3 -3 21 -14 40 -24 100 -55
228 -150 343 -254 l49 -45 -34 7 c-42 7 -217 33 -283 41 -149 18 -556 12 -755
-10 -725 -81 -1492 -373 -2190 -833 -83 -55 -355 -250 -395 -283 -11 -10 -71
-58 -132 -108 -257 -209 -529 -475 -794 -777 -209 -240 -510 -667 -662 -939
-6 -11 -26 -47 -45 -80 -19 -33 -72 -136 -117 -230 -266 -545 -434 -1114 -481
-1625 -3 -41 -8 -86 -10 -100 -5 -38 -5 -500 0 -508 2 -4 7 -45 10 -92 6 -81
8 -99 22 -180 3 -19 8 -46 10 -60 2 -14 7 -36 10 -50 l6 -25 -32 30 c-52 49
-146 167 -216 272 -164 244 -305 628 -340 924 -3 30 -8 57 -10 60 -2 3 -7 52
-11 110 -51 666 107 1380 462 2089 618 1234 1778 2281 3028 2734 341 124 659
197 1022 235 120 12 486 10 600 -5z m1105 -1013 c258 -40 503 -115 715 -217
l79 -39 -49 -7 c-28 -4 -70 -10 -95 -14 -56 -7 -338 -68 -445 -95 -44 -12 -87
-22 -95 -24 -22 -4 -141 -42 -250 -80 -431 -148 -839 -374 -1120 -620 -209
-183 -426 -440 -526 -623 -16 -29 -39 -69 -51 -90 -13 -20 -27 -46 -32 -57
-57 -127 -94 -214 -120 -286 -30 -84 -94 -318 -106 -389 -3 -19 -8 -42 -10
-50 -5 -15 -10 -55 -20 -150 -4 -30 -9 -66 -12 -80 -4 -14 -7 -217 -8 -453 -2
-235 -6 -469 -10 -520 -3 -50 -8 -116 -10 -144 -2 -29 -6 -70 -10 -90 -3 -21
-8 -58 -11 -83 -12 -108 -46 -286 -77 -410 -205 -800 -666 -1367 -1356 -1670
-181 -79 -470 -162 -613 -176 -35 -3 -66 -8 -70 -10 -11 -7 -184 -18 -271 -18
-75 0 -80 1 -105 31 -15 17 -38 44 -52 59 -13 16 -57 75 -96 132 -215 305
-355 721 -389 1152 -9 103 -9 394 -1 470 3 30 8 87 11 125 4 39 18 135 31 215
125 738 471 1489 995 2162 61 77 116 146 122 153 7 7 32 36 57 66 94 111 149
170 334 354 355 353 706 624 1151 888 371 219 856 416 1259 511 160 38 273 59
436 81 224 30 613 28 820 -4z m1347 -704 c46 -51 140 -180 192 -265 179 -291
298 -679 326 -1067 6 -82 6 -404 0 -455 -2 -19 -6 -71 -10 -114 -3 -44 -8 -82
-10 -85 -1 -4 -6 -35 -10 -71 -4 -36 -8 -67 -10 -70 -2 -3 -6 -26 -10 -50 -21
-142 -107 -460 -178 -661 -79 -223 -232 -559 -334 -738 -61 -106 -149 -252
-201 -331 -52 -81 -220 -319 -231 -330 -4 -3 -28 -34 -56 -70 -49 -64 -109
-138 -209 -254 -59 -70 -415 -429 -497 -501 -110 -99 -126 -112 -234 -199
-153 -121 -192 -151 -260 -199 -321 -224 -567 -369 -855 -501 -218 -101 -332
-147 -526 -211 -118 -39 -402 -114 -484 -129 -14 -2 -52 -9 -85 -15 -129 -22
-188 -30 -375 -47 -121 -11 -414 -5 -549 10 -260 31 -535 102 -711 184 -64 30
-64 31 -30 32 19 1 46 3 60 4 14 2 63 6 110 10 46 4 87 9 90 11 3 1 32 6 65
10 127 16 158 21 295 50 1021 216 1707 787 2006 1670 73 215 120 432 150 700
3 33 8 74 11 90 2 17 5 219 8 450 3 424 7 523 25 650 5 39 12 90 15 114 9 75
63 299 101 421 228 718 762 1303 1536 1683 75 37 161 76 190 87 29 12 69 28
88 37 85 39 507 178 556 182 6 1 24 -14 41 -32z m-2043 -549 c-45 -41 -188
-196 -248 -268 -211 -256 -395 -580 -507 -895 -44 -123 -102 -321 -118 -405
-6 -30 -13 -66 -16 -80 -9 -42 -19 -100 -29 -170 -9 -63 -17 -124 -22 -165 -3
-22 -7 -213 -10 -425 -4 -374 -10 -588 -19 -653 -2 -18 -7 -57 -10 -87 -9 -76
-11 -90 -18 -125 -4 -16 -9 -46 -12 -65 -13 -77 -16 -95 -36 -169 -101 -379
-253 -665 -483 -911 -53 -56 -147 -143 -196 -180 -45 -34 -44 -30 18 39 42 47
160 219 223 326 121 203 218 424 295 669 44 140 90 329 110 456 3 19 8 38 10
41 2 3 6 32 10 64 3 32 7 67 9 77 2 10 9 64 15 121 6 56 13 125 17 152 3 28 7
246 8 485 2 383 8 556 21 625 2 11 6 43 10 70 6 59 39 211 53 249 6 14 9 26 6
26 -8 0 73 227 111 310 154 340 413 639 759 876 49 34 91 61 93 59 2 -2 -18
-23 -44 -47z"/>
</g>
</svg>
